<?xml version="1.0" encoding="UTF-8"?>
<svg id="Layer_1" data-name="Layer 1" xmlns="http://www.w3.org/2000/svg" viewBox="0 0 522.69 560.21">
  <g>
    <g>
      <polygon points="261.64 280.11 261.64 507.59 458.5 393.94 458.5 166.39 261.64 280.11" style="fill: #48baeb;"/>
      <polygon points="458.5 166.39 458.5 166.28 261.64 52.62 64.77 166.28 64.77 166.39 261.64 280.11 458.5 166.39" style="fill: #bddef5;"/>
      <polygon points="64.77 166.39 64.77 393.94 261.64 507.59 261.64 280.11 64.77 166.39" style="fill: #7dcaf1;"/>
    </g>
    <polygon points="21.03 419.09 21.03 141.12 261.64 2.31 502.25 141.12 502.25 419.09 261.64 557.9 21.03 419.09" style="fill: none; stroke: #a7a8aa; stroke-miterlimit: 10; stroke-width: 4px;"/>
    <path d="M502.25,141.12l-240.61,138.98L21.03,141.12" style="fill: none; stroke: #a7a8aa; stroke-miterlimit: 10; stroke-width: 4px;"/>
    <line x1="261.64" y1="280.11" x2="261.64" y2="557.9" style="fill: none; stroke: #a7a8aa; stroke-miterlimit: 10; stroke-width: 4px;"/>
  </g>
  <path d="M502.81,260.41c-28.51-14.91-45.48,11.53-45.48,11.53,0,0,10.5-9.58,29.85-4.75,16.29,4.07,19.01,48.86-21.03,45.46-52.77-4.46-86.85-81.41-138.43-88.19-45.03-5.94-62.64,19.72-66.36,46.67-3.75-26.95-21.35-52.61-66.39-46.67-51.58,6.78-85.66,83.73-138.42,88.19-40.04,3.4-37.33-41.39-21.04-45.46,19.35-4.83,29.86,4.75,29.86,4.75,0,0-16.97-26.45-45.48-11.53-28.48,14.94-35.26,75.31,40.73,97.03,60.68,17.34,189.55,19.51,200.74-62.8,11.17,82.3,140.04,80.14,200.72,62.8,76-21.73,69.21-82.09,40.73-97.03Z" style="fill: #58585a;"/>
</svg>
